<?xml version="1.0" encoding="utf-8"?>
<!-- Svg Vector Icons : http://www.onlinewebfonts.com/icon -->
<!DOCTYPE svg PUBLIC "-//W3C//DTD SVG 1.1//EN" "http://www.w3.org/Graphics/SVG/1.1/DTD/svg11.dtd">
<svg version="1.1" xmlns="http://www.w3.org/2000/svg" xmlns:xlink="http://www.w3.org/1999/xlink" x="0px" y="0px" viewBox="0 0 1000 1000" enable-background="new 0 0 1000 1000" xml:space="preserve">
<metadata> Svg Vector Icons : http://www.onlinewebfonts.com/icon </metadata>
<g><path d="M888.9,562.5l101.1-179l-81.5,0.5C857.3,185.8,678.3,39.4,466.6,39.4c-0.9,0-1.8,0-2.6,0c-122,0.7-236.3,49.3-322.1,136.8C56.1,263.7,9.3,379.6,10,502.7c0.7,123,48.9,238.4,135.6,324.9c86.1,85.8,200,133,320.9,133c0.9,0,1.8,0,2.7,0c146.3-0.9,284.3-73.2,369.4-193.5l-25.5-18.3C733.9,860.8,605.3,928.2,469,929c-0.8,0-1.7,0-2.5,0c-112.7,0-218.7-43.9-298.9-123.9C86.8,724.6,41.9,617.1,41.3,502.5c-0.7-114.6,43-222.6,122.8-304.1C244,116.9,350.5,71.6,464.2,71c0.8,0,1.6,0,2.5,0C661,71,825.8,203.6,876.1,384.2l-90.4,0.5L888.9,562.5L888.9,562.5z M290.7,478.1L292,702c0,12.5,10.2,22.7,22.6,22.7h0.1l306.4-1.8c6,0,11.7-2.4,15.9-6.8c4.2-4.3,6.6-10.1,6.5-16.1l-1.3-224c-0.1-12.4-10.2-22.6-22.7-22.6l-30,0.2l-0.3-53.7c-0.4-68.1-55.7-123.6-124-123.6c-67.9,0.4-122.9,56.5-122.5,125l0.3,53.7l-30,0.2C300.7,455.3,290.7,465.5,290.7,478.1L290.7,478.1z M466.1,307.8c50.4,0,91.6,41.4,91.9,92.2l0.3,53.7l-183.9,1.1l-0.3-53.7C373.8,350,414.8,308.1,466.1,307.8L466.1,307.8z M611,485l1.2,206.3L323.2,693L322,486.7L611,485L611,485z"/></g>
</svg>